<?xml version="1.0" encoding="utf-8"?>
<!-- Generator: Adobe Illustrator 26.5.1, SVG Export Plug-In . SVG Version: 6.00 Build 0)  -->
<svg version="1.1" id="Layer_1" xmlns="http://www.w3.org/2000/svg" xmlns:xlink="http://www.w3.org/1999/xlink" x="0px" y="0px"
	 viewBox="0 0 394.1 123.2" style="enable-background:new 0 0 394.1 123.2;" xml:space="preserve">
<style type="text/css">
	.st0{fill:#FFFFFF;}
	.st1{fill:#F18A00;}
</style>
<g>
	<path class="st0" d="M261,0.6c0.3,0,0.6-0.1,0.8-0.1c0.3,0,0.5,0,0.8,0c0.3,0,0.5,0,0.8,0c0.3,0,0.5,0,0.8,0.1v8.3
		c0,0.9,0,1.7,0.1,2.3c0.1,0.6,0.2,1.2,0.4,1.6c0.2,0.4,0.5,0.7,0.8,0.9c0.4,0.2,0.8,0.3,1.4,0.3c0.6,0,1-0.1,1.4-0.3
		c0.4-0.2,0.6-0.5,0.8-0.9c0.2-0.4,0.3-1,0.4-1.6c0.1-0.6,0.1-1.4,0.1-2.3V0.6c0.3,0,0.6-0.1,0.8-0.1c0.3,0,0.5,0,0.8,0
		c0.3,0,0.5,0,0.8,0c0.3,0,0.6,0,0.8,0.1v9c0,1.1-0.1,2.1-0.3,3c-0.2,0.9-0.5,1.7-1,2.3c-0.5,0.6-1.1,1.1-1.8,1.5
		c-0.8,0.3-1.7,0.5-2.9,0.5c-1.2,0-2.2-0.2-2.9-0.5c-0.8-0.3-1.4-0.8-1.8-1.5c-0.5-0.6-0.8-1.4-1-2.3c-0.2-0.9-0.3-1.9-0.3-3V0.6z"
		/>
	<path class="st0" d="M276.6,5c0.2,0,0.4-0.1,0.6-0.1c0.2,0,0.4,0,0.7,0c0.3,0,0.5,0,0.7,0c0.2,0,0.4,0.1,0.6,0.1
		c0,0.1,0.1,0.2,0.1,0.3c0,0.1,0.1,0.3,0.1,0.4c0,0.2,0.1,0.3,0.1,0.5c0,0.1,0,0.3,0.1,0.4c0.1-0.2,0.3-0.4,0.5-0.7
		c0.2-0.2,0.4-0.4,0.7-0.6c0.3-0.2,0.6-0.3,0.9-0.4c0.3-0.1,0.7-0.2,1.1-0.2c1.3,0,2.3,0.4,2.9,1.1c0.7,0.7,1,1.8,1,3.3v7.3
		c-0.5,0.1-1.1,0.1-1.6,0.1c-0.5,0-1,0-1.6-0.1V10c0-0.8-0.1-1.4-0.4-1.8c-0.2-0.4-0.7-0.6-1.3-0.6c-0.3,0-0.5,0-0.8,0.1
		c-0.3,0.1-0.5,0.2-0.7,0.4c-0.2,0.2-0.4,0.5-0.5,0.9c-0.1,0.4-0.2,0.9-0.2,1.5v6c-0.5,0.1-1.1,0.1-1.6,0.1c-0.5,0-1,0-1.6-0.1V5z"
		/>
	<path class="st0" d="M290.9,7.4h-1.5c0-0.2-0.1-0.4-0.1-0.6c0-0.2,0-0.4,0-0.6c0-0.4,0-0.8,0.1-1.2h4.6v11.5
		c-0.5,0.1-1,0.1-1.6,0.1c-0.5,0-1,0-1.5-0.1V7.4z M290.4,3.1c-0.1-0.5-0.1-1-0.1-1.5c0-0.5,0-1,0.1-1.5c0.3,0,0.5-0.1,0.8-0.1
		c0.3,0,0.6,0,0.8,0c0.3,0,0.5,0,0.8,0c0.3,0,0.6,0.1,0.8,0.1c0,0.3,0.1,0.5,0.1,0.7c0,0.2,0,0.5,0,0.7c0,0.2,0,0.5,0,0.7
		c0,0.2,0,0.5-0.1,0.8c-0.3,0-0.5,0.1-0.8,0.1c-0.3,0-0.6,0-0.8,0c-0.2,0-0.5,0-0.8,0C290.9,3.2,290.7,3.1,290.4,3.1"/>
	<path class="st0" d="M296.2,5.1c0.4-0.1,0.7-0.1,1-0.1c0.3,0,0.6,0,0.8,0c0.3,0,0.6,0,0.9,0c0.3,0,0.6,0.1,0.8,0.1l2.5,8.5l2.5-8.5
		c0.3,0,0.5-0.1,0.8-0.1c0.3,0,0.6,0,0.8,0c0.2,0,0.5,0,0.8,0c0.3,0,0.6,0.1,1,0.1l-4.3,11.4c-0.3,0-0.6,0.1-0.9,0.1
		c-0.3,0-0.6,0-0.8,0c-0.2,0-0.5,0-0.8,0c-0.3,0-0.5-0.1-0.8-0.1L296.2,5.1z"/>
	<path class="st0" d="M312.4,11.7c0.1,0.9,0.4,1.5,0.9,1.9c0.6,0.4,1.3,0.6,2.2,0.6c0.5,0,1,0,1.5-0.1c0.5-0.1,1-0.2,1.5-0.4
		c0.2,0.3,0.3,0.7,0.4,1.1c0.1,0.4,0.2,0.9,0.2,1.3c-1.2,0.4-2.5,0.7-3.9,0.7c-1.1,0-2-0.1-2.7-0.4c-0.8-0.3-1.4-0.7-1.9-1.2
		c-0.5-0.5-0.8-1.1-1.1-1.9s-0.3-1.5-0.3-2.4c0-0.8,0.1-1.6,0.4-2.4c0.2-0.7,0.6-1.4,1.1-1.9c0.5-0.5,1-1,1.7-1.3
		c0.7-0.3,1.5-0.5,2.4-0.5c0.8,0,1.5,0.1,2.1,0.4c0.6,0.3,1.1,0.7,1.6,1.2c0.4,0.5,0.8,1.1,1,1.7c0.2,0.7,0.3,1.4,0.3,2.2
		c0,0.3,0,0.6,0,0.8c0,0.3,0,0.5-0.1,0.7H312.4z M316.9,9.5c0-0.7-0.2-1.3-0.6-1.7c-0.4-0.4-0.9-0.7-1.5-0.7c-0.7,0-1.3,0.2-1.7,0.6
		c-0.4,0.4-0.6,1-0.7,1.8H316.9z"/>
	<path class="st0" d="M323,5c0.2,0,0.4-0.1,0.6-0.1c0.2,0,0.4,0,0.7,0c0.2,0,0.4,0,0.7,0c0.2,0,0.4,0.1,0.6,0.1
		c0,0.1,0.1,0.2,0.1,0.3c0,0.1,0.1,0.3,0.1,0.4c0,0.2,0.1,0.3,0.1,0.5c0,0.2,0,0.3,0.1,0.4c0.3-0.5,0.7-0.9,1.2-1.2
		c0.5-0.4,1.1-0.5,1.8-0.5c0.1,0,0.3,0,0.5,0c0.2,0,0.3,0,0.4,0.1c0,0.1,0.1,0.3,0.1,0.5c0,0.2,0,0.4,0,0.6c0,0.3,0,0.5,0,0.8
		c0,0.3-0.1,0.6-0.1,0.8c-0.2,0-0.3,0-0.5,0h-0.4c-0.2,0-0.5,0-0.8,0.1c-0.3,0.1-0.6,0.2-0.9,0.4c-0.3,0.2-0.5,0.6-0.7,1
		c-0.2,0.4-0.3,1.1-0.3,1.9v5.5c-0.3,0-0.5,0.1-0.8,0.1c-0.3,0-0.5,0-0.8,0c-0.3,0-0.5,0-0.8,0c-0.3,0-0.5,0-0.8-0.1V5z"/>
	<path class="st0" d="M334.5,11.5c-0.8-0.2-1.5-0.6-1.9-1.1c-0.5-0.5-0.7-1.2-0.7-2.1c0-1.1,0.4-2,1.2-2.6c0.8-0.6,1.9-1,3.3-1
		c0.6,0,1.1,0.1,1.7,0.2c0.6,0.1,1.1,0.3,1.7,0.5c0,0.4-0.1,0.8-0.2,1.2c-0.1,0.4-0.3,0.8-0.4,1.1c-0.4-0.1-0.7-0.3-1.2-0.4
		c-0.4-0.1-0.9-0.2-1.4-0.2c-0.5,0-0.9,0.1-1.2,0.2c-0.3,0.2-0.4,0.4-0.4,0.7c0,0.3,0.1,0.6,0.3,0.7c0.2,0.1,0.5,0.3,0.9,0.4
		l1.3,0.4c0.4,0.1,0.8,0.3,1.1,0.4c0.3,0.2,0.6,0.4,0.9,0.6c0.2,0.3,0.4,0.6,0.6,0.9c0.1,0.4,0.2,0.8,0.2,1.4c0,0.5-0.1,1.1-0.3,1.5
		c-0.2,0.5-0.6,0.9-1,1.2c-0.4,0.3-1,0.6-1.6,0.8c-0.6,0.2-1.3,0.3-2.1,0.3c-0.4,0-0.7,0-1,0c-0.3,0-0.6-0.1-0.9-0.1
		c-0.3-0.1-0.5-0.1-0.8-0.2c-0.3-0.1-0.6-0.2-0.9-0.3c0-0.4,0.1-0.8,0.2-1.2c0.1-0.4,0.3-0.8,0.4-1.2c0.5,0.2,0.9,0.3,1.4,0.4
		c0.4,0.1,0.9,0.1,1.4,0.1c0.2,0,0.4,0,0.7-0.1c0.2,0,0.5-0.1,0.7-0.2c0.2-0.1,0.4-0.2,0.5-0.4c0.1-0.2,0.2-0.4,0.2-0.6
		c0-0.4-0.1-0.6-0.3-0.8c-0.2-0.2-0.5-0.3-0.9-0.4L334.5,11.5z"/>
	<path class="st0" d="M343.7,7.4h-1.5c0-0.2-0.1-0.4-0.1-0.6c0-0.2,0-0.4,0-0.6c0-0.4,0-0.8,0.1-1.2h4.6v11.5
		c-0.5,0.1-1,0.1-1.6,0.1c-0.5,0-1,0-1.5-0.1V7.4z M343.2,3.1c-0.1-0.5-0.1-1-0.1-1.5c0-0.5,0-1,0.1-1.5c0.3,0,0.5-0.1,0.8-0.1
		c0.3,0,0.6,0,0.8,0c0.3,0,0.5,0,0.8,0c0.3,0,0.6,0.1,0.8,0.1c0,0.3,0.1,0.5,0.1,0.7c0,0.2,0,0.5,0,0.7c0,0.2,0,0.5,0,0.7
		c0,0.2,0,0.5-0.1,0.8c-0.3,0-0.5,0.1-0.8,0.1c-0.3,0-0.6,0-0.8,0c-0.2,0-0.5,0-0.8,0C343.8,3.2,343.5,3.1,343.2,3.1"/>
	<path class="st0" d="M357.4,0.3c0.3,0,0.5-0.1,0.8-0.1c0.3,0,0.5,0,0.8,0c0.2,0,0.5,0,0.8,0c0.3,0,0.5,0,0.8,0.1v15.8
		c-0.7,0.2-1.4,0.4-2.1,0.5c-0.7,0.1-1.6,0.2-2.6,0.2c-0.8,0-1.5-0.1-2.2-0.3c-0.7-0.2-1.4-0.6-1.9-1c-0.5-0.5-1-1.1-1.3-1.8
		c-0.3-0.7-0.5-1.6-0.5-2.7c0-0.8,0.1-1.6,0.4-2.4c0.3-0.7,0.7-1.4,1.2-1.9c0.5-0.5,1.1-1,1.9-1.3c0.7-0.3,1.5-0.5,2.4-0.5
		c0.3,0,0.5,0,0.8,0c0.3,0,0.6,0.1,0.8,0.1V0.3z M357.4,7.4c-0.3-0.1-0.5-0.1-0.7-0.1c-0.2,0-0.4,0-0.7,0c-0.5,0-0.9,0.1-1.3,0.3
		c-0.4,0.2-0.7,0.5-0.9,0.8c-0.2,0.3-0.4,0.7-0.5,1.2c-0.1,0.5-0.2,0.9-0.2,1.4c0,0.6,0.1,1.1,0.2,1.5c0.1,0.4,0.4,0.8,0.6,1
		c0.3,0.3,0.6,0.4,0.9,0.5c0.4,0.1,0.7,0.2,1.2,0.2c0.3,0,0.5,0,0.7,0c0.2,0,0.4-0.1,0.7-0.1V7.4z"/>
	<path class="st0" d="M369.9,9c0-0.4-0.1-0.6-0.2-0.9c-0.1-0.2-0.3-0.4-0.5-0.5c-0.2-0.1-0.5-0.2-0.8-0.3c-0.3,0-0.6-0.1-1-0.1
		c-0.8,0-1.6,0.2-2.5,0.5c-0.2-0.4-0.4-0.7-0.5-1.1c-0.1-0.3-0.2-0.7-0.2-1.2c0.6-0.2,1.3-0.4,1.9-0.5c0.6-0.1,1.3-0.2,1.8-0.2
		c1.5,0,2.7,0.4,3.6,1.1c0.9,0.7,1.3,1.9,1.3,3.5v6.6c-0.5,0.2-1.1,0.3-1.9,0.5c-0.7,0.1-1.6,0.2-2.5,0.2c-0.8,0-1.4-0.1-2.1-0.2
		c-0.6-0.1-1.2-0.4-1.6-0.7c-0.5-0.3-0.8-0.7-1-1.2c-0.2-0.5-0.4-1.1-0.4-1.8c0-0.7,0.2-1.3,0.5-1.8c0.3-0.5,0.7-0.9,1.2-1.2
		c0.5-0.3,1-0.5,1.6-0.6c0.6-0.1,1.2-0.2,1.8-0.2c0.4,0,0.9,0,1.4,0.1V9z M369.9,11.2c-0.2,0-0.4-0.1-0.6-0.1c-0.2,0-0.4,0-0.6,0
		c-0.7,0-1.3,0.1-1.7,0.4c-0.4,0.3-0.6,0.7-0.6,1.3c0,0.4,0.1,0.7,0.2,0.9c0.2,0.2,0.4,0.4,0.6,0.5c0.2,0.1,0.5,0.2,0.7,0.2
		c0.3,0,0.5,0,0.7,0c0.2,0,0.4,0,0.7-0.1c0.2,0,0.4-0.1,0.6-0.1V11.2z"/>
	<path class="st0" d="M383.2,0.3c0.3,0,0.5-0.1,0.8-0.1c0.3,0,0.5,0,0.8,0c0.2,0,0.5,0,0.8,0c0.3,0,0.5,0,0.8,0.1v15.8
		c-0.7,0.2-1.4,0.4-2.1,0.5c-0.7,0.1-1.6,0.2-2.6,0.2c-0.8,0-1.5-0.1-2.2-0.3c-0.7-0.2-1.4-0.6-1.9-1c-0.5-0.5-1-1.1-1.3-1.8
		c-0.3-0.7-0.5-1.6-0.5-2.7c0-0.8,0.1-1.6,0.4-2.4c0.3-0.7,0.7-1.4,1.2-1.9c0.5-0.5,1.1-1,1.9-1.3c0.7-0.3,1.5-0.5,2.4-0.5
		c0.3,0,0.5,0,0.8,0c0.3,0,0.6,0.1,0.8,0.1V0.3z M383.2,7.4c-0.3-0.1-0.5-0.1-0.7-0.1c-0.2,0-0.4,0-0.7,0c-0.5,0-0.9,0.1-1.3,0.3
		c-0.4,0.2-0.7,0.5-0.9,0.8c-0.2,0.3-0.4,0.7-0.5,1.2c-0.1,0.5-0.2,0.9-0.2,1.4c0,0.6,0.1,1.1,0.2,1.5c0.1,0.4,0.4,0.8,0.6,1
		c0.3,0.3,0.6,0.4,0.9,0.5c0.4,0.1,0.7,0.2,1.2,0.2c0.3,0,0.5,0,0.7,0c0.2,0,0.4-0.1,0.7-0.1V7.4z"/>
	<path class="st0" d="M269.9,60.1c0.5-0.1,1.1-0.1,1.6-0.1c0.5,0,1.1,0,1.6,0.1v7.8c-0.8,0.3-1.6,0.5-2.4,0.6
		c-0.8,0.1-1.6,0.1-2.2,0.1c-1.3,0-2.4-0.2-3.4-0.6c-1-0.4-1.8-1-2.4-1.7c-0.7-0.7-1.1-1.6-1.5-2.6c-0.3-1-0.5-2.1-0.5-3.3
		c0-1.2,0.2-2.3,0.5-3.3c0.3-1,0.8-1.9,1.5-2.6c0.6-0.7,1.4-1.3,2.4-1.7c0.9-0.4,2-0.6,3.2-0.6c0.7,0,1.4,0,2,0.1
		c0.6,0.1,1.3,0.3,1.9,0.6c0,0.4-0.1,0.9-0.3,1.3c-0.1,0.4-0.3,0.8-0.5,1.3c-0.5-0.2-1-0.3-1.4-0.4c-0.4-0.1-0.9-0.1-1.4-0.1
		c-1.4,0-2.5,0.5-3.3,1.4c-0.8,0.9-1.1,2.3-1.1,4.1c0,1.8,0.4,3.2,1.1,4.1c0.8,0.9,1.9,1.3,3.3,1.3c0.3,0,0.5,0,0.7,0
		c0.2,0,0.4-0.1,0.5-0.1V60.1z"/>
	<path class="st0" d="M276.4,56.9c0.5-0.1,1.1-0.1,1.6-0.1c0.5,0,1,0,1.6,0.1V63c0,0.6,0,1.1,0.1,1.5c0.1,0.4,0.2,0.7,0.4,0.9
		c0.2,0.2,0.4,0.4,0.7,0.5c0.3,0.1,0.6,0.1,1,0.1c0.5,0,1-0.1,1.4-0.2v-9c0.5-0.1,1.1-0.1,1.6-0.1c0.5,0,1,0,1.6,0.1v11
		c-0.5,0.2-1.1,0.3-1.9,0.5c-0.8,0.2-1.6,0.2-2.4,0.2c-0.8,0-1.5-0.1-2.2-0.2c-0.7-0.1-1.3-0.4-1.8-0.8c-0.5-0.4-0.9-0.9-1.3-1.7
		c-0.3-0.7-0.5-1.7-0.5-2.9V56.9z"/>
	<path class="st0" d="M295.7,60.8c0-0.4-0.1-0.6-0.2-0.9c-0.1-0.2-0.3-0.4-0.5-0.5c-0.2-0.1-0.5-0.2-0.8-0.3c-0.3,0-0.6-0.1-1-0.1
		c-0.8,0-1.6,0.2-2.5,0.5c-0.2-0.4-0.4-0.7-0.5-1.1c-0.1-0.3-0.2-0.7-0.2-1.2c0.6-0.2,1.3-0.4,1.9-0.5c0.6-0.1,1.3-0.2,1.8-0.2
		c1.5,0,2.7,0.4,3.6,1.1c0.9,0.7,1.3,1.9,1.3,3.5V68c-0.5,0.2-1.1,0.3-1.9,0.5c-0.7,0.1-1.6,0.2-2.5,0.2c-0.8,0-1.4-0.1-2.1-0.2
		c-0.6-0.1-1.2-0.4-1.6-0.7c-0.5-0.3-0.8-0.7-1-1.2c-0.2-0.5-0.4-1.1-0.4-1.8c0-0.7,0.2-1.3,0.5-1.8c0.3-0.5,0.7-0.9,1.2-1.2
		c0.5-0.3,1-0.5,1.6-0.6c0.6-0.1,1.2-0.2,1.8-0.2c0.4,0,0.9,0,1.4,0.1V60.8z M295.7,63.1c-0.2,0-0.4-0.1-0.6-0.1c-0.2,0-0.4,0-0.6,0
		c-0.7,0-1.3,0.1-1.7,0.4c-0.4,0.3-0.6,0.7-0.6,1.3c0,0.4,0.1,0.7,0.2,0.9c0.2,0.2,0.4,0.4,0.6,0.5c0.2,0.1,0.5,0.2,0.7,0.2
		c0.3,0,0.5,0,0.7,0c0.2,0,0.4,0,0.7-0.1c0.2,0,0.4-0.1,0.6-0.1V63.1z"/>
	<path class="st0" d="M309,52.2c0.3,0,0.5-0.1,0.8-0.1c0.3,0,0.5,0,0.8,0c0.2,0,0.5,0,0.8,0c0.3,0,0.5,0,0.8,0.1V68
		c-0.7,0.2-1.4,0.4-2.1,0.5c-0.7,0.1-1.6,0.2-2.6,0.2c-0.8,0-1.5-0.1-2.2-0.3c-0.7-0.2-1.4-0.6-1.9-1c-0.5-0.5-1-1.1-1.3-1.8
		c-0.3-0.7-0.5-1.6-0.5-2.7c0-0.8,0.1-1.6,0.4-2.4c0.3-0.7,0.7-1.4,1.2-1.9c0.5-0.5,1.1-1,1.9-1.3c0.7-0.3,1.5-0.5,2.4-0.5
		c0.3,0,0.5,0,0.8,0c0.3,0,0.6,0.1,0.8,0.1V52.2z M309,59.3c-0.3-0.1-0.5-0.1-0.7-0.1c-0.2,0-0.4,0-0.7,0c-0.5,0-0.9,0.1-1.3,0.3
		c-0.4,0.2-0.7,0.5-0.9,0.8c-0.2,0.3-0.4,0.7-0.5,1.2c-0.1,0.5-0.2,0.9-0.2,1.4c0,0.6,0.1,1.1,0.2,1.5c0.1,0.4,0.4,0.8,0.6,1
		c0.3,0.3,0.6,0.4,0.9,0.5c0.4,0.1,0.7,0.2,1.2,0.2c0.3,0,0.5,0,0.7,0c0.2,0,0.4-0.1,0.7-0.1V59.3z"/>
	<path class="st0" d="M321.6,60.8c0-0.4-0.1-0.6-0.2-0.9c-0.1-0.2-0.3-0.4-0.5-0.5c-0.2-0.1-0.5-0.2-0.8-0.3c-0.3,0-0.6-0.1-1-0.1
		c-0.8,0-1.6,0.2-2.5,0.5c-0.2-0.4-0.4-0.7-0.5-1.1c-0.1-0.3-0.2-0.7-0.2-1.2c0.6-0.2,1.3-0.4,1.9-0.5c0.6-0.1,1.3-0.2,1.8-0.2
		c1.5,0,2.7,0.4,3.6,1.1c0.9,0.7,1.3,1.9,1.3,3.5V68c-0.5,0.2-1.1,0.3-1.9,0.5c-0.7,0.1-1.6,0.2-2.5,0.2c-0.8,0-1.4-0.1-2.1-0.2
		c-0.6-0.1-1.2-0.4-1.6-0.7c-0.5-0.3-0.8-0.7-1-1.2c-0.2-0.5-0.4-1.1-0.4-1.8c0-0.7,0.2-1.3,0.5-1.8c0.3-0.5,0.7-0.9,1.2-1.2
		c0.5-0.3,1-0.5,1.6-0.6c0.6-0.1,1.2-0.2,1.8-0.2c0.4,0,0.9,0,1.4,0.1V60.8z M321.6,63.1c-0.2,0-0.4-0.1-0.6-0.1c-0.2,0-0.4,0-0.6,0
		c-0.7,0-1.3,0.1-1.7,0.4c-0.4,0.3-0.6,0.7-0.6,1.3c0,0.4,0.1,0.7,0.2,0.9c0.2,0.2,0.4,0.4,0.6,0.5c0.2,0.1,0.5,0.2,0.7,0.2
		c0.3,0,0.5,0,0.7,0c0.2,0,0.4,0,0.7-0.1c0.2,0,0.4-0.1,0.6-0.1V63.1z"/>
	<path class="st0" d="M328,52.2c0.5-0.1,1.1-0.1,1.6-0.1c0.5,0,1,0,1.5,0.1v11.6c0,0.5,0,0.8,0.1,1.1c0.1,0.3,0.1,0.5,0.2,0.7
		c0.1,0.2,0.3,0.3,0.4,0.3c0.2,0.1,0.4,0.1,0.7,0.1c0.1,0,0.2,0,0.4,0c0.1,0,0.3,0,0.4-0.1c0.2,0.6,0.2,1.2,0.2,1.8V68
		c0,0.1,0,0.2,0,0.3c-0.2,0.1-0.5,0.1-0.9,0.2c-0.3,0-0.6,0-0.9,0c-1.1,0-2.1-0.3-2.7-0.9c-0.7-0.6-1-1.7-1-3.1V52.2z"/>
	<path class="st0" d="M341.7,60.8c0-0.4-0.1-0.6-0.2-0.9c-0.1-0.2-0.3-0.4-0.5-0.5c-0.2-0.1-0.5-0.2-0.8-0.3c-0.3,0-0.6-0.1-1-0.1
		c-0.8,0-1.6,0.2-2.5,0.5c-0.2-0.4-0.4-0.7-0.5-1.1c-0.1-0.3-0.2-0.7-0.2-1.2c0.6-0.2,1.3-0.4,1.9-0.5c0.6-0.1,1.3-0.2,1.8-0.2
		c1.5,0,2.7,0.4,3.6,1.1c0.9,0.7,1.3,1.9,1.3,3.5V68c-0.5,0.2-1.1,0.3-1.9,0.5c-0.7,0.1-1.6,0.2-2.5,0.2c-0.8,0-1.4-0.1-2.1-0.2
		c-0.6-0.1-1.2-0.4-1.6-0.7c-0.5-0.3-0.8-0.7-1-1.2c-0.2-0.5-0.4-1.1-0.4-1.8c0-0.7,0.2-1.3,0.5-1.8c0.3-0.5,0.7-0.9,1.2-1.2
		c0.5-0.3,1-0.5,1.6-0.6c0.6-0.1,1.2-0.2,1.8-0.2c0.4,0,0.9,0,1.4,0.1V60.8z M341.7,63.1c-0.2,0-0.4-0.1-0.6-0.1c-0.2,0-0.4,0-0.6,0
		c-0.7,0-1.3,0.1-1.7,0.4c-0.4,0.3-0.6,0.7-0.6,1.3c0,0.4,0.1,0.7,0.2,0.9c0.2,0.2,0.4,0.4,0.6,0.5c0.2,0.1,0.5,0.2,0.7,0.2
		c0.3,0,0.5,0,0.7,0c0.2,0,0.4,0,0.7-0.1c0.2,0,0.4-0.1,0.6-0.1V63.1z"/>
	<path class="st0" d="M348.8,59.3h-1.5c0-0.2-0.1-0.4-0.1-0.6c0-0.2,0-0.4,0-0.6c0-0.4,0-0.8,0.1-1.2h4.6v11.7
		c0,1.4-0.4,2.4-1.1,3.1c-0.7,0.6-1.7,0.9-3.1,0.9c-0.4,0-0.7,0-1.1-0.1c-0.4,0-0.7-0.1-1.1-0.2c0-0.4,0-0.8,0.1-1.2
		c0.1-0.4,0.2-0.7,0.3-1.1c0.1,0,0.3,0.1,0.5,0.1c0.2,0,0.4,0,0.6,0c0.2,0,0.5,0,0.7-0.1c0.2-0.1,0.4-0.2,0.6-0.3
		c0.2-0.2,0.3-0.4,0.4-0.7c0.1-0.3,0.1-0.7,0.1-1.1V59.3z M348.3,54.9c-0.1-0.3-0.1-0.6-0.1-0.8c0-0.2,0-0.4,0-0.6
		c0-0.2,0-0.5,0-0.7c0-0.2,0.1-0.5,0.1-0.8c0.3-0.1,0.6-0.1,0.9-0.2c0.3,0,0.5,0,0.8,0c0.2,0,0.5,0,0.8,0c0.3,0,0.6,0.1,0.8,0.2
		c0.1,0.3,0.1,0.5,0.1,0.8c0,0.2,0,0.4,0,0.7c0,0.2,0,0.4,0,0.6c0,0.2-0.1,0.5-0.1,0.8c-0.3,0.1-0.5,0.1-0.8,0.1c-0.3,0-0.5,0-0.8,0
		c-0.2,0-0.5,0-0.8,0C348.9,55,348.6,55,348.3,54.9"/>
	<path class="st0" d="M361.4,60.8c0-0.4-0.1-0.6-0.2-0.9c-0.1-0.2-0.3-0.4-0.5-0.5c-0.2-0.1-0.5-0.2-0.8-0.3c-0.3,0-0.6-0.1-1-0.1
		c-0.8,0-1.6,0.2-2.5,0.5c-0.2-0.4-0.4-0.7-0.5-1.1c-0.1-0.3-0.2-0.7-0.2-1.2c0.6-0.2,1.3-0.4,1.9-0.5c0.6-0.1,1.3-0.2,1.8-0.2
		c1.5,0,2.7,0.4,3.6,1.1c0.9,0.7,1.3,1.9,1.3,3.5V68c-0.5,0.2-1.1,0.3-1.9,0.5c-0.7,0.1-1.6,0.2-2.5,0.2c-0.8,0-1.4-0.1-2.1-0.2
		c-0.6-0.1-1.2-0.4-1.6-0.7c-0.5-0.3-0.8-0.7-1-1.2c-0.2-0.5-0.4-1.1-0.4-1.8c0-0.7,0.2-1.3,0.5-1.8c0.3-0.5,0.7-0.9,1.2-1.2
		c0.5-0.3,1-0.5,1.6-0.6c0.6-0.1,1.2-0.2,1.8-0.2c0.4,0,0.9,0,1.4,0.1V60.8z M361.4,63.1c-0.2,0-0.4-0.1-0.6-0.1c-0.2,0-0.4,0-0.6,0
		c-0.7,0-1.3,0.1-1.7,0.4c-0.4,0.3-0.6,0.7-0.6,1.3c0,0.4,0.1,0.7,0.2,0.9c0.2,0.2,0.4,0.4,0.6,0.5c0.2,0.1,0.5,0.2,0.7,0.2
		c0.3,0,0.5,0,0.7,0c0.2,0,0.4,0,0.7-0.1c0.2,0,0.4-0.1,0.6-0.1V63.1z"/>
	<path class="st0" d="M367.9,56.9c0.2,0,0.4-0.1,0.6-0.1c0.2,0,0.4,0,0.7,0c0.2,0,0.4,0,0.7,0c0.2,0,0.4,0.1,0.6,0.1
		c0,0.1,0.1,0.2,0.1,0.3c0,0.1,0.1,0.3,0.1,0.4c0,0.2,0.1,0.3,0.1,0.5c0,0.2,0,0.3,0.1,0.4c0.3-0.5,0.7-0.9,1.2-1.2
		c0.5-0.4,1.1-0.5,1.8-0.5c0.1,0,0.3,0,0.5,0c0.2,0,0.3,0,0.4,0.1c0,0.1,0.1,0.3,0.1,0.5c0,0.2,0,0.4,0,0.6c0,0.3,0,0.5,0,0.8
		c0,0.3-0.1,0.6-0.1,0.8c-0.2,0-0.3,0-0.5,0h-0.4c-0.3,0-0.5,0-0.8,0.1c-0.3,0.1-0.6,0.2-0.9,0.4c-0.3,0.2-0.5,0.6-0.7,1
		c-0.2,0.4-0.3,1.1-0.3,1.9v5.5c-0.3,0-0.5,0.1-0.8,0.1c-0.3,0-0.5,0-0.8,0c-0.3,0-0.5,0-0.8,0c-0.3,0-0.5,0-0.8-0.1V56.9z"/>
	<path class="st0" d="M383,60.8c0-0.4-0.1-0.6-0.2-0.9c-0.1-0.2-0.3-0.4-0.5-0.5c-0.2-0.1-0.5-0.2-0.8-0.3c-0.3,0-0.6-0.1-1-0.1
		c-0.8,0-1.6,0.2-2.5,0.5c-0.2-0.4-0.4-0.7-0.5-1.1c-0.1-0.3-0.2-0.7-0.2-1.2c0.6-0.2,1.3-0.4,1.9-0.5c0.6-0.1,1.3-0.2,1.8-0.2
		c1.5,0,2.7,0.4,3.6,1.1c0.9,0.7,1.3,1.9,1.3,3.5V68c-0.5,0.2-1.1,0.3-1.9,0.5c-0.7,0.1-1.6,0.2-2.5,0.2c-0.8,0-1.4-0.1-2.1-0.2
		c-0.6-0.1-1.2-0.4-1.6-0.7c-0.5-0.3-0.8-0.7-1-1.2c-0.2-0.5-0.4-1.1-0.4-1.8c0-0.7,0.2-1.3,0.5-1.8c0.3-0.5,0.7-0.9,1.2-1.2
		c0.5-0.3,1-0.5,1.6-0.6c0.6-0.1,1.2-0.2,1.8-0.2c0.4,0,0.9,0,1.4,0.1V60.8z M383,63.1c-0.2,0-0.4-0.1-0.6-0.1c-0.2,0-0.4,0-0.6,0
		c-0.7,0-1.3,0.1-1.7,0.4c-0.4,0.3-0.6,0.7-0.6,1.3c0,0.4,0.1,0.7,0.2,0.9c0.2,0.2,0.4,0.4,0.6,0.5c0.2,0.1,0.5,0.2,0.7,0.2
		c0.3,0,0.5,0,0.7,0c0.2,0,0.4,0,0.7-0.1c0.2,0,0.4-0.1,0.6-0.1V63.1z"/>
	<path class="st0" d="M265.3,26.6c0.3,0,0.6-0.1,0.9-0.1c0.3,0,0.6,0,0.9,0c0.3,0,0.6,0,0.9,0c0.3,0,0.6,0.1,0.9,0.1l5,15.9
		c-0.6,0.1-1.2,0.1-1.8,0.1c-0.6,0-1.1,0-1.6-0.1l-0.9-3.2h-5.3l-0.9,3.2c-0.5,0.1-1,0.1-1.5,0.1c-0.5,0-1.1,0-1.6-0.1L265.3,26.6z
		 M268.8,36.6l-1.8-6.7l-1.9,6.7H268.8z"/>
	<path class="st0" d="M275.5,31c0.5-0.1,1.1-0.1,1.6-0.1c0.5,0,1,0,1.6,0.1v6.1c0,0.6,0,1.1,0.1,1.5c0.1,0.4,0.2,0.7,0.4,0.9
		c0.2,0.2,0.4,0.4,0.7,0.5c0.3,0.1,0.6,0.1,1,0.1c0.5,0,1-0.1,1.4-0.2v-9c0.5-0.1,1-0.1,1.6-0.1c0.5,0,1,0,1.6,0.1v11
		c-0.5,0.2-1.1,0.3-1.9,0.5c-0.8,0.2-1.6,0.2-2.4,0.2c-0.8,0-1.5-0.1-2.2-0.2c-0.7-0.1-1.3-0.4-1.8-0.8c-0.5-0.4-0.9-0.9-1.3-1.7
		c-0.3-0.7-0.5-1.7-0.5-2.9V31z"/>
	<path class="st0" d="M288.6,33.4h-1.4l-0.1-0.4l4.1-5.3h0.5V31h2.7c0,0.2,0.1,0.4,0.1,0.6c0,0.2,0,0.4,0,0.6c0,0.2,0,0.4,0,0.6
		c0,0.2,0,0.4-0.1,0.6h-2.7v4.5c0,0.5,0,0.8,0.1,1.1c0.1,0.3,0.2,0.5,0.3,0.7c0.1,0.2,0.3,0.3,0.5,0.3c0.2,0.1,0.5,0.1,0.7,0.1
		c0.2,0,0.4,0,0.7-0.1c0.2,0,0.4-0.1,0.6-0.1c0.1,0.3,0.2,0.6,0.2,0.9c0,0.3,0.1,0.6,0.1,0.8c0,0.2,0,0.3,0,0.4c0,0.1,0,0.2,0,0.3
		c-0.7,0.2-1.4,0.2-2.1,0.2c-1.3,0-2.4-0.3-3.1-0.9c-0.7-0.6-1.1-1.6-1.1-3.1V33.4z"/>
	<path class="st0" d="M301.7,42.8c-0.9,0-1.7-0.2-2.4-0.5c-0.7-0.3-1.3-0.7-1.7-1.3c-0.5-0.5-0.8-1.2-1-1.9
		c-0.2-0.7-0.3-1.5-0.3-2.3c0-0.8,0.1-1.6,0.3-2.4c0.2-0.7,0.6-1.4,1-1.9c0.5-0.5,1-1,1.7-1.3c0.7-0.3,1.5-0.5,2.4-0.5
		c0.9,0,1.7,0.2,2.4,0.5c0.7,0.3,1.3,0.7,1.7,1.3c0.5,0.5,0.8,1.2,1,1.9c0.2,0.7,0.3,1.5,0.3,2.4c0,0.8-0.1,1.6-0.3,2.3
		c-0.2,0.7-0.6,1.4-1,1.9c-0.5,0.5-1,1-1.7,1.3C303.4,42.6,302.6,42.8,301.7,42.8 M301.7,40.4c0.8,0,1.4-0.3,1.8-0.9
		c0.4-0.6,0.5-1.5,0.5-2.6c0-1.2-0.2-2-0.5-2.6c-0.4-0.6-1-0.9-1.8-0.9c-0.8,0-1.4,0.3-1.8,0.9c-0.4,0.6-0.5,1.5-0.5,2.6
		c0,1.2,0.2,2,0.5,2.6C300.3,40.1,300.9,40.4,301.7,40.4 M301.9,26.6c0.6-0.1,1.3-0.1,2-0.1c0.4,0,0.7,0,1,0c0.3,0,0.6,0.1,0.9,0.1
		l-3.3,2.7c-0.2,0-0.4,0.1-0.7,0.1c-0.3,0-0.5,0-0.8,0c-0.5,0-1,0-1.4-0.1L301.9,26.6z"/>
	<path class="st0" d="M309.7,31c0.2,0,0.4-0.1,0.6-0.1c0.2,0,0.4,0,0.7,0c0.3,0,0.5,0,0.7,0c0.2,0,0.4,0.1,0.6,0.1
		c0,0.1,0.1,0.2,0.1,0.3c0,0.1,0.1,0.3,0.1,0.4c0,0.2,0.1,0.3,0.1,0.5c0,0.1,0,0.3,0.1,0.4c0.1-0.2,0.3-0.4,0.5-0.7
		c0.2-0.2,0.4-0.4,0.7-0.6c0.3-0.2,0.6-0.3,0.9-0.4c0.3-0.1,0.7-0.2,1.1-0.2c1.3,0,2.3,0.4,2.9,1.1c0.7,0.7,1,1.8,1,3.3v7.3
		c-0.5,0.1-1.1,0.1-1.6,0.1c-0.5,0-1,0-1.6-0.1V36c0-0.8-0.1-1.4-0.4-1.8c-0.2-0.4-0.7-0.6-1.3-0.6c-0.3,0-0.5,0-0.8,0.1
		c-0.3,0.1-0.5,0.2-0.7,0.4c-0.2,0.2-0.4,0.5-0.5,0.9c-0.1,0.4-0.2,0.9-0.2,1.5v6c-0.5,0.1-1.1,0.1-1.6,0.1c-0.5,0-1,0-1.6-0.1V31z"
		/>
	<path class="st0" d="M327.5,42.8c-0.9,0-1.7-0.2-2.4-0.5c-0.7-0.3-1.3-0.7-1.7-1.3c-0.5-0.5-0.8-1.2-1-1.9
		c-0.2-0.7-0.3-1.5-0.3-2.3c0-0.8,0.1-1.6,0.3-2.4c0.2-0.7,0.6-1.4,1-1.9c0.4-0.5,1-1,1.7-1.3c0.7-0.3,1.5-0.5,2.4-0.5
		c0.9,0,1.7,0.2,2.4,0.5c0.7,0.3,1.3,0.7,1.7,1.3c0.5,0.5,0.8,1.2,1,1.9c0.2,0.7,0.3,1.5,0.3,2.4c0,0.8-0.1,1.6-0.3,2.3
		c-0.2,0.7-0.6,1.4-1,1.9c-0.5,0.5-1,1-1.7,1.3C329.3,42.6,328.5,42.8,327.5,42.8 M327.5,40.4c0.8,0,1.4-0.3,1.8-0.9
		c0.4-0.6,0.5-1.5,0.5-2.6c0-1.2-0.2-2-0.5-2.6c-0.4-0.6-1-0.9-1.8-0.9c-0.8,0-1.4,0.3-1.8,0.9c-0.4,0.6-0.5,1.5-0.5,2.6
		c0,1.2,0.2,2,0.5,2.6C326.1,40.1,326.7,40.4,327.5,40.4"/>
	<path class="st0" d="M335.5,31c0.2,0,0.4-0.1,0.6-0.1c0.2,0,0.4,0,0.7,0c0.3,0,0.5,0,0.7,0c0.2,0,0.4,0.1,0.6,0.1
		c0,0.1,0.1,0.2,0.1,0.3c0,0.1,0.1,0.3,0.1,0.4c0,0.2,0.1,0.3,0.1,0.5c0,0.1,0,0.3,0.1,0.4c0.1-0.2,0.3-0.4,0.5-0.7
		c0.2-0.2,0.4-0.4,0.7-0.6c0.3-0.2,0.6-0.3,0.9-0.4c0.3-0.1,0.7-0.2,1.1-0.2c1.8,0,2.9,0.7,3.4,2c0.3-0.5,0.7-1,1.3-1.4
		c0.5-0.4,1.2-0.6,2.1-0.6c1.3,0,2.3,0.4,2.9,1.1c0.6,0.7,0.9,1.8,0.9,3.4v7.3c-0.5,0.1-1.1,0.1-1.6,0.1c-0.5,0-1,0-1.6-0.1V36
		c0-0.8-0.1-1.4-0.3-1.8c-0.2-0.4-0.6-0.6-1.2-0.6c-0.3,0-0.5,0-0.7,0.1c-0.2,0.1-0.5,0.2-0.7,0.4c-0.2,0.2-0.4,0.5-0.5,0.8
		c-0.1,0.4-0.2,0.8-0.2,1.4v6.2c-0.5,0.1-1.1,0.1-1.6,0.1c-0.5,0-1,0-1.6-0.1V36c0-0.8-0.1-1.4-0.3-1.8c-0.2-0.4-0.6-0.6-1.2-0.6
		c-0.3,0-0.5,0-0.8,0.1c-0.3,0.1-0.5,0.2-0.7,0.4c-0.2,0.2-0.4,0.5-0.5,0.9c-0.1,0.4-0.2,0.9-0.2,1.5v6c-0.5,0.1-1.1,0.1-1.6,0.1
		c-0.5,0-1,0-1.6-0.1V31z"/>
	<path class="st0" d="M360.7,35c0-0.4-0.1-0.6-0.2-0.9c-0.1-0.2-0.3-0.4-0.5-0.5c-0.2-0.1-0.5-0.2-0.8-0.3c-0.3,0-0.6-0.1-1-0.1
		c-0.8,0-1.6,0.2-2.5,0.5c-0.2-0.4-0.4-0.7-0.5-1.1c-0.1-0.3-0.2-0.7-0.2-1.2c0.6-0.2,1.3-0.4,1.9-0.5c0.6-0.1,1.3-0.2,1.8-0.2
		c1.5,0,2.7,0.4,3.6,1.1c0.9,0.7,1.3,1.9,1.3,3.5v6.6c-0.5,0.2-1.1,0.3-1.9,0.5c-0.7,0.1-1.6,0.2-2.5,0.2c-0.8,0-1.4-0.1-2.1-0.2
		c-0.6-0.1-1.2-0.4-1.6-0.7c-0.5-0.3-0.8-0.7-1-1.2c-0.2-0.5-0.4-1.1-0.4-1.8c0-0.7,0.2-1.3,0.5-1.8c0.3-0.5,0.7-0.9,1.2-1.2
		c0.5-0.3,1-0.5,1.6-0.6c0.6-0.1,1.2-0.2,1.8-0.2c0.4,0,0.9,0,1.4,0.1V35z M360.7,37.2c-0.2,0-0.4-0.1-0.6-0.1c-0.2,0-0.4,0-0.6,0
		c-0.7,0-1.3,0.1-1.7,0.4c-0.4,0.3-0.6,0.7-0.6,1.3c0,0.4,0.1,0.7,0.2,0.9c0.2,0.2,0.4,0.4,0.6,0.5c0.2,0.1,0.5,0.2,0.7,0.2
		c0.3,0,0.5,0,0.7,0c0.2,0,0.4,0,0.7-0.1c0.2,0,0.4-0.1,0.6-0.1V37.2z"/>
	<path class="st0" d="M374.5,30.7c0.2,0,0.4-0.1,0.6-0.1c0.2,0,0.4,0,0.6,0c0.2,0,0.4,0,0.6,0c0.2,0,0.4,0,0.6,0.1v11.6
		c-0.5,0.2-1,0.3-1.6,0.4c-0.5,0.1-1.2,0.1-1.9,0.1c-0.6,0-1.1-0.1-1.7-0.2c-0.5-0.2-1-0.4-1.4-0.7c-0.4-0.3-0.7-0.8-1-1.3
		c-0.2-0.5-0.3-1.2-0.3-2c0-0.6,0.1-1.2,0.3-1.7c0.2-0.5,0.5-1,0.9-1.4s0.8-0.7,1.4-1c0.5-0.2,1.1-0.4,1.8-0.4c0.2,0,0.4,0,0.6,0
		c0.2,0,0.4,0.1,0.6,0.1V30.7z M374.5,35.9c-0.2-0.1-0.4-0.1-0.5-0.1c-0.1,0-0.3,0-0.5,0c-0.4,0-0.7,0.1-0.9,0.2s-0.5,0.3-0.7,0.6
		s-0.3,0.5-0.4,0.9c-0.1,0.3-0.1,0.7-0.1,1c0,0.4,0.1,0.8,0.2,1.1c0.1,0.3,0.3,0.6,0.4,0.7c0.2,0.2,0.4,0.3,0.7,0.4
		c0.3,0.1,0.5,0.1,0.8,0.1c0.2,0,0.4,0,0.5,0c0.2,0,0.3-0.1,0.5-0.1V35.9z"/>
	<path class="st0" d="M380.9,39.1c0,0.7,0.3,1.1,0.7,1.4c0.4,0.3,1,0.4,1.6,0.4c0.4,0,0.7,0,1.1-0.1c0.4-0.1,0.8-0.2,1.1-0.3
		c0.1,0.2,0.2,0.5,0.3,0.8c0.1,0.3,0.1,0.6,0.1,1c-0.8,0.3-1.8,0.5-2.9,0.5c-0.8,0-1.5-0.1-2-0.3c-0.6-0.2-1-0.5-1.4-0.9
		c-0.4-0.4-0.6-0.8-0.8-1.4c-0.2-0.5-0.3-1.1-0.3-1.7c0-0.6,0.1-1.2,0.3-1.7c0.2-0.5,0.4-1,0.8-1.4c0.3-0.4,0.8-0.7,1.3-1
		c0.5-0.2,1.1-0.4,1.8-0.4c0.6,0,1.1,0.1,1.6,0.3c0.5,0.2,0.8,0.5,1.2,0.8c0.3,0.4,0.6,0.8,0.7,1.3c0.2,0.5,0.2,1,0.2,1.6
		c0,0.2,0,0.4,0,0.6c0,0.2,0,0.4-0.1,0.5H380.9z M384.2,37.5c0-0.5-0.2-0.9-0.4-1.3c-0.3-0.3-0.6-0.5-1.1-0.5c-0.5,0-1,0.2-1.2,0.5
		c-0.3,0.3-0.5,0.7-0.5,1.3H384.2z"/>
	<path class="st1" d="M146.2,43c14-0.5,28.1-0.1,28.1-0.1s-28.8,4.8-36.7,17L146.2,43z"/>
	<path class="st0" d="M236.8,37.5l0.1-0.1H220c5.5,4,5.1,11.4,5.1,11.4l0,2.9l0,0v6.5c-3,1.1-5.9,1.6-8.8,1.6
		c-7,0-12.6-2.4-16.9-7.1c-4.3-4.8-6.5-10.9-6.5-18.4c0-7.4,2.3-13.4,6.9-18c4.6-4.6,10.7-6.8,18.2-6.8c4.8,0,9.6,1.3,14.2,3.7
		l4.3-7.9C230.3,1.8,223.7,0,216.6,0c-11.1,0-20.2,3.3-27.4,9.8c-7.2,6.5-10.8,14.8-10.8,24.9c0,2.4,0.2,4.6,0.6,6.8L163.9,1.1
		h-10.3l0,0h-7.2c4.7,3.4,3.9,7.5,3.6,8.7l-15.6,38.3c0.3-2.5,0.5-5.6,0.5-9.4V1.1h-12v35.3c0,7-0.5,11.9-1.5,14.6
		c-2.2,5.9-6.6,8.8-13.3,8.8c-5.2,0-8.9-1.9-11.3-5.6c-1.3-2.1-2.2-4.9-2.6-8.4c-0.2-1.7-0.3-4.7-0.3-9V1.1H80.5v0h-5
		c4.1,3,4.9,7.8,5,10.1v26.6c0,5,0.1,8.5,0.4,10.4c0.4,3.8,1.5,7.1,3.1,9.8c4.5,7.5,12.3,11.2,23.4,11.2c10.1,0,17.5-3.2,22.3-9.5
		l-3.4,8.4h11.1l19.6-52.3l17.7,52.3h14.5l-5.9-15.8c1.6,2.6,3.5,5,5.8,7.1c7,6.5,16,9.8,26.8,9.8c7,0,14.6-1.4,22.9-4.1V37.5H236.8
		z"/>
	<path class="st0" d="M0,117.2v-13.6h4.4c1.7,0,2.8,0.1,3.3,0.2c0.8,0.2,1.4,0.6,2,1.3c0.5,0.7,0.8,1.6,0.8,2.6
		c0,0.8-0.2,1.5-0.5,2.1c-0.3,0.6-0.7,1-1.2,1.3c-0.5,0.3-0.9,0.5-1.4,0.6c-0.7,0.1-1.6,0.2-2.8,0.2H2.7v5.1H0z M2.7,105.9v3.9h1.5
		c1.1,0,1.8-0.1,2.2-0.2c0.4-0.1,0.6-0.4,0.9-0.7c0.2-0.3,0.3-0.7,0.3-1.1c0-0.5-0.1-0.9-0.4-1.2c-0.3-0.3-0.7-0.5-1.1-0.6
		c-0.3-0.1-1-0.1-2-0.1H2.7z"/>
	<path class="st0" d="M11.7,112.2c0-0.9,0.2-1.7,0.6-2.5c0.4-0.8,1-1.4,1.8-1.9s1.7-0.6,2.6-0.6c1.5,0,2.7,0.5,3.7,1.4
		c1,1,1.4,2.2,1.4,3.7c0,1.5-0.5,2.7-1.4,3.7c-1,1-2.2,1.5-3.6,1.5c-0.9,0-1.8-0.2-2.6-0.6c-0.8-0.4-1.4-1-1.9-1.8
		C11.9,114.3,11.7,113.3,11.7,112.2 M14.4,112.3c0,1,0.2,1.7,0.7,2.2c0.5,0.5,1,0.8,1.7,0.8s1.2-0.3,1.7-0.8
		c0.5-0.5,0.7-1.3,0.7-2.3c0-1-0.2-1.7-0.7-2.2c-0.5-0.5-1-0.8-1.7-0.8s-1.2,0.3-1.7,0.8C14.6,110.6,14.4,111.3,14.4,112.3"/>
	<polygon class="st0" points="25.4,117.2 22.3,107.4 24.8,107.4 26.7,113.8 28.4,107.4 30.9,107.4 32.5,113.8 34.4,107.4 
		36.9,107.4 33.8,117.2 31.3,117.2 29.6,110.9 27.9,117.2 	"/>
	<path class="st0" d="M43.7,114.1l2.6,0.4c-0.3,1-0.9,1.7-1.6,2.2c-0.7,0.5-1.6,0.7-2.7,0.7c-1.7,0-3-0.6-3.8-1.7
		c-0.6-0.9-1-2-1-3.4c0-1.6,0.4-2.9,1.3-3.8c0.9-0.9,1.9-1.4,3.2-1.4c1.5,0,2.6,0.5,3.5,1.4s1.2,2.4,1.2,4.4h-6.5
		c0,0.8,0.2,1.4,0.6,1.8c0.4,0.4,0.9,0.6,1.5,0.6c0.4,0,0.8-0.1,1-0.3C43.3,114.9,43.5,114.6,43.7,114.1 M43.8,111.5
		c0-0.8-0.2-1.3-0.6-1.7c-0.4-0.4-0.8-0.6-1.4-0.6c-0.6,0-1,0.2-1.4,0.6c-0.4,0.4-0.6,1-0.5,1.7H43.8z"/>
	<path class="st0" d="M50.7,117.2h-2.6v-9.8h2.4v1.4c0.4-0.7,0.8-1.1,1.1-1.3c0.3-0.2,0.7-0.3,1.1-0.3c0.6,0,1.2,0.2,1.7,0.5
		l-0.8,2.3c-0.4-0.3-0.8-0.4-1.2-0.4c-0.4,0-0.7,0.1-0.9,0.3c-0.3,0.2-0.5,0.6-0.6,1.1c-0.1,0.5-0.2,1.6-0.2,3.3V117.2z"/>
	<path class="st0" d="M61,114.1l2.6,0.4c-0.3,1-0.9,1.7-1.6,2.2c-0.7,0.5-1.6,0.7-2.7,0.7c-1.7,0-3-0.6-3.8-1.7c-0.6-0.9-1-2-1-3.4
		c0-1.6,0.4-2.9,1.3-3.8c0.9-0.9,1.9-1.4,3.2-1.4c1.5,0,2.6,0.5,3.5,1.4s1.2,2.4,1.2,4.4h-6.5c0,0.8,0.2,1.4,0.6,1.8
		c0.4,0.4,0.9,0.6,1.5,0.6c0.4,0,0.8-0.1,1-0.3C60.6,114.9,60.8,114.6,61,114.1 M61.1,111.5c0-0.8-0.2-1.3-0.6-1.7
		c-0.4-0.4-0.8-0.6-1.4-0.6c-0.6,0-1,0.2-1.4,0.6c-0.4,0.4-0.6,1-0.5,1.7H61.1z"/>
	<path class="st0" d="M74.5,117.2h-2.4v-1.4c-0.4,0.6-0.9,1-1.4,1.3c-0.5,0.3-1.1,0.4-1.7,0.4c-1.1,0-2.1-0.5-2.9-1.4
		c-0.8-0.9-1.2-2.2-1.2-3.8c0-1.7,0.4-2.9,1.2-3.8c0.8-0.9,1.8-1.3,3-1.3c1.1,0,2,0.5,2.9,1.4v-4.9h2.6V117.2z M67.6,112.1
		c0,1,0.1,1.8,0.4,2.3c0.4,0.7,1,1,1.8,1c0.6,0,1.1-0.3,1.5-0.8s0.6-1.3,0.6-2.3c0-1.1-0.2-1.9-0.6-2.4c-0.4-0.5-0.9-0.7-1.6-0.7
		c-0.6,0-1.1,0.2-1.6,0.7C67.8,110.4,67.6,111.1,67.6,112.1"/>
	<path class="st0" d="M81.6,117.2v-13.6h2.6v4.9c0.8-0.9,1.8-1.4,2.9-1.4c1.2,0,2.2,0.4,3,1.3c0.8,0.9,1.2,2.1,1.2,3.7
		c0,1.7-0.4,3-1.2,3.9c-0.8,0.9-1.8,1.4-2.9,1.4c-0.6,0-1.1-0.1-1.7-0.4c-0.5-0.3-1-0.7-1.4-1.2v1.4H81.6z M84.2,112.1
		c0,1,0.2,1.8,0.5,2.3c0.5,0.7,1.1,1,1.8,1c0.6,0,1.1-0.2,1.5-0.7c0.4-0.5,0.6-1.3,0.6-2.3c0-1.1-0.2-1.9-0.6-2.4
		c-0.4-0.5-0.9-0.7-1.6-0.7c-0.6,0-1.1,0.2-1.6,0.7C84.4,110.4,84.2,111.1,84.2,112.1"/>
	<path class="st0" d="M91.7,107.4h2.8l2.4,7l2.3-7h2.7l-3.5,9.5l-0.6,1.7c-0.2,0.6-0.4,1-0.7,1.3c-0.2,0.3-0.4,0.5-0.7,0.7
		c-0.3,0.2-0.6,0.3-1,0.4c-0.4,0.1-0.8,0.2-1.3,0.2c-0.5,0-1-0.1-1.5-0.2l-0.2-2c0.4,0.1,0.8,0.1,1.1,0.1c0.6,0,1.1-0.2,1.3-0.5
		c0.3-0.4,0.5-0.8,0.7-1.4L91.7,107.4z"/>
	<path class="st0" d="M127.7,118.1h-3.9l-1.5-4h-7l-1.5,4h-3.8l6.9-17.6h3.8L127.7,118.1z M121.2,111.1l-2.4-6.5l-2.4,6.5H121.2z"/>
	<path class="st0" d="M132.4,118.1H129v-12.7h3.1v1.8c0.5-0.9,1-1.4,1.4-1.7c0.4-0.3,0.9-0.4,1.5-0.4c0.8,0,1.5,0.2,2.2,0.6l-1,2.9
		c-0.6-0.4-1.1-0.6-1.6-0.6c-0.5,0-0.9,0.1-1.2,0.4c-0.3,0.3-0.6,0.7-0.8,1.4c-0.2,0.7-0.3,2.1-0.3,4.3V118.1z"/>
	<path class="st0" d="M138.3,100.5h3.4v3.1h-3.4V100.5z M138.3,105.3h3.4v12.7h-3.4V105.3z"/>
	<path class="st0" d="M143.4,118.1v-2.6l4.8-5.5c0.8-0.9,1.4-1.5,1.7-1.9c-0.4,0-0.9,0-1.5,0l-4.5,0v-2.8h10.5v2.4l-4.9,5.6
		l-1.7,1.9c0.9-0.1,1.5-0.1,1.7-0.1h5.2v3H143.4z"/>
	<path class="st0" d="M155.8,111.5c0-1.1,0.3-2.2,0.8-3.3c0.6-1,1.3-1.8,2.3-2.4c1-0.6,2.1-0.8,3.4-0.8c1.9,0,3.5,0.6,4.7,1.9
		c1.2,1.3,1.8,2.8,1.8,4.7c0,1.9-0.6,3.5-1.9,4.8c-1.2,1.3-2.8,1.9-4.7,1.9c-1.2,0-2.3-0.3-3.3-0.8c-1.1-0.5-1.9-1.3-2.4-2.3
		C156.1,114.2,155.8,113,155.8,111.5 M159.3,111.7c0,1.3,0.3,2.2,0.9,2.9s1.3,1,2.2,1c0.9,0,1.6-0.3,2.2-1c0.6-0.7,0.9-1.6,0.9-2.9
		c0-1.2-0.3-2.2-0.9-2.9c-0.6-0.7-1.3-1-2.2-1c-0.9,0-1.6,0.3-2.2,1S159.3,110.4,159.3,111.7"/>
	<path class="st0" d="M182.8,118.1h-3.4v-6.5c0-1.4-0.1-2.3-0.2-2.7c-0.1-0.4-0.4-0.7-0.7-0.9s-0.7-0.3-1.2-0.3
		c-0.6,0-1.1,0.2-1.6,0.5c-0.5,0.3-0.8,0.7-1,1.3c-0.2,0.5-0.3,1.5-0.3,2.9v5.8h-3.4v-12.7h3.1v1.9c1.1-1.4,2.5-2.2,4.2-2.2
		c0.7,0,1.4,0.1,2,0.4c0.6,0.3,1.1,0.6,1.4,1c0.3,0.4,0.5,0.9,0.7,1.4c0.1,0.5,0.2,1.3,0.2,2.3V118.1z"/>
	<path class="st0" d="M188.3,109.2l-3.1-0.6c0.3-1.2,0.9-2.1,1.8-2.7c0.8-0.6,2.1-0.9,3.7-0.9c1.5,0,2.6,0.2,3.4,0.5
		c0.7,0.4,1.3,0.8,1.6,1.4c0.3,0.5,0.4,1.6,0.4,3l0,3.9c0,1.1,0.1,1.9,0.2,2.5c0.1,0.5,0.3,1.1,0.6,1.7h-3.3c-0.1-0.2-0.2-0.6-0.3-1
		c-0.1-0.2-0.1-0.3-0.1-0.4c-0.6,0.6-1.2,1-1.8,1.3c-0.7,0.3-1.4,0.4-2.1,0.4c-1.3,0-2.3-0.4-3.1-1.1c-0.8-0.7-1.1-1.6-1.1-2.7
		c0-0.7,0.2-1.4,0.5-1.9c0.3-0.6,0.8-1,1.4-1.3c0.6-0.3,1.5-0.6,2.7-0.8c1.6-0.3,2.7-0.6,3.3-0.8v-0.3c0-0.6-0.2-1.1-0.5-1.4
		c-0.3-0.3-0.9-0.4-1.8-0.4c-0.6,0-1.1,0.1-1.4,0.4C188.8,108.2,188.5,108.6,188.3,109.2 M192.8,111.9c-0.4,0.1-1.1,0.3-2.1,0.5
		c-0.9,0.2-1.5,0.4-1.8,0.6c-0.4,0.3-0.7,0.7-0.7,1.2c0,0.5,0.2,0.9,0.5,1.2c0.4,0.3,0.8,0.5,1.3,0.5c0.6,0,1.2-0.2,1.7-0.6
		c0.4-0.3,0.7-0.7,0.8-1.1c0.1-0.3,0.1-0.8,0.1-1.6V111.9z"/>
	<path class="st0" d="M206.2,112.3l3.5-0.3c0.2,1.2,0.6,2,1.3,2.6c0.6,0.5,1.5,0.8,2.6,0.8c1.1,0,2-0.2,2.6-0.7
		c0.6-0.5,0.9-1.1,0.9-1.7c0-0.4-0.1-0.8-0.4-1.1c-0.2-0.3-0.7-0.5-1.3-0.8c-0.4-0.1-1.4-0.4-2.8-0.8c-1.9-0.5-3.2-1.1-4-1.7
		c-1.1-1-1.6-2.1-1.6-3.5c0-0.9,0.3-1.7,0.8-2.5c0.5-0.8,1.2-1.4,2.2-1.8c1-0.4,2.1-0.6,3.5-0.6c2.2,0,3.9,0.5,5,1.5
		c1.1,1,1.7,2.3,1.8,3.9l-3.6,0.2c-0.2-0.9-0.5-1.6-1-1.9c-0.5-0.4-1.2-0.6-2.2-0.6c-1,0-1.8,0.2-2.4,0.6c-0.4,0.3-0.6,0.6-0.6,1.1
		c0,0.4,0.2,0.8,0.5,1.1c0.4,0.4,1.5,0.8,3.3,1.2c1.7,0.4,3,0.8,3.8,1.3c0.8,0.4,1.5,1,1.9,1.8c0.5,0.8,0.7,1.7,0.7,2.8
		c0,1-0.3,2-0.8,2.8c-0.6,0.9-1.4,1.5-2.4,2c-1,0.4-2.3,0.6-3.8,0.6c-2.2,0-3.9-0.5-5.1-1.5C207.1,115.8,206.4,114.3,206.2,112.3"/>
	<path class="st0" d="M228.9,105.3v2.7h-2.3v5.1c0,1,0,1.6,0.1,1.8c0,0.2,0.1,0.3,0.3,0.4c0.2,0.1,0.3,0.2,0.6,0.2
		c0.3,0,0.8-0.1,1.4-0.3l0.3,2.6c-0.8,0.3-1.7,0.5-2.7,0.5c-0.6,0-1.2-0.1-1.6-0.3c-0.5-0.2-0.8-0.5-1.1-0.8
		c-0.2-0.3-0.4-0.8-0.5-1.3c-0.1-0.4-0.1-1.2-0.1-2.4V108h-1.5v-2.7h1.5v-2.5l3.4-2v4.5H228.9z"/>
	<path class="st0" d="M233.3,109.2l-3.1-0.6c0.3-1.2,0.9-2.1,1.8-2.7c0.8-0.6,2.1-0.9,3.7-0.9c1.5,0,2.6,0.2,3.4,0.5
		c0.7,0.4,1.3,0.8,1.6,1.4c0.3,0.5,0.4,1.6,0.4,3l0,3.9c0,1.1,0.1,1.9,0.2,2.5c0.1,0.5,0.3,1.1,0.6,1.7h-3.3c-0.1-0.2-0.2-0.6-0.3-1
		c-0.1-0.2-0.1-0.3-0.1-0.4c-0.6,0.6-1.2,1-1.8,1.3c-0.7,0.3-1.4,0.4-2.1,0.4c-1.3,0-2.3-0.4-3.1-1.1c-0.8-0.7-1.1-1.6-1.1-2.7
		c0-0.7,0.2-1.4,0.5-1.9c0.3-0.6,0.8-1,1.4-1.3c0.6-0.3,1.5-0.6,2.7-0.8c1.6-0.3,2.7-0.6,3.3-0.8v-0.3c0-0.6-0.2-1.1-0.5-1.4
		c-0.3-0.3-0.9-0.4-1.8-0.4c-0.6,0-1.1,0.1-1.4,0.4C233.8,108.2,233.5,108.6,233.3,109.2 M237.8,111.9c-0.4,0.1-1.1,0.3-2.1,0.5
		c-0.9,0.2-1.5,0.4-1.8,0.6c-0.4,0.3-0.7,0.7-0.7,1.2c0,0.5,0.2,0.9,0.5,1.2c0.4,0.3,0.8,0.5,1.3,0.5c0.6,0,1.2-0.2,1.7-0.6
		c0.4-0.3,0.7-0.7,0.8-1.1c0.1-0.3,0.1-0.8,0.1-1.6V111.9z"/>
	<path class="st0" d="M249.9,105.3v2.7h-2.3v5.1c0,1,0,1.6,0.1,1.8c0,0.2,0.1,0.3,0.3,0.4c0.2,0.1,0.3,0.2,0.6,0.2
		c0.3,0,0.8-0.1,1.4-0.3l0.3,2.6c-0.8,0.3-1.7,0.5-2.7,0.5c-0.6,0-1.2-0.1-1.6-0.3c-0.5-0.2-0.8-0.5-1.1-0.8
		c-0.2-0.3-0.4-0.8-0.5-1.3c-0.1-0.4-0.1-1.2-0.1-2.4V108h-1.5v-2.7h1.5v-2.5l3.4-2v4.5H249.9z"/>
	<path class="st0" d="M259.2,114l3.4,0.6c-0.4,1.2-1.1,2.2-2,2.8c-0.9,0.6-2.1,1-3.5,1c-2.2,0-3.9-0.7-4.9-2.2
		c-0.8-1.2-1.3-2.6-1.3-4.4c0-2.1,0.6-3.8,1.7-5c1.1-1.2,2.5-1.8,4.2-1.8c1.9,0,3.4,0.6,4.5,1.9c1.1,1.3,1.6,3.2,1.6,5.8h-8.4
		c0,1,0.3,1.8,0.8,2.3c0.5,0.6,1.2,0.8,1.9,0.8c0.5,0,1-0.1,1.3-0.4C258.7,115.1,259,114.6,259.2,114 M259.4,110.6
		c0-1-0.3-1.7-0.8-2.2c-0.5-0.5-1.1-0.8-1.8-0.8c-0.7,0-1.3,0.3-1.8,0.8c-0.5,0.5-0.7,1.3-0.7,2.2H259.4z"/>
	<path class="st0" d="M273.1,100.5h3.6v9.5c0,1.5,0,2.5,0.1,2.9c0.2,0.7,0.5,1.3,1.1,1.7s1.4,0.7,2.3,0.7c1,0,1.8-0.2,2.3-0.6
		c0.5-0.4,0.8-0.9,0.9-1.5c0.1-0.6,0.2-1.6,0.2-3v-9.7h3.6v9.2c0,2.1-0.1,3.6-0.3,4.5c-0.2,0.9-0.5,1.6-1.1,2.2
		c-0.5,0.6-1.2,1.1-2.1,1.4c-0.9,0.4-2,0.5-3.4,0.5c-1.7,0-3-0.2-3.8-0.6c-0.9-0.4-1.6-0.9-2.1-1.5c-0.5-0.6-0.8-1.3-1-2
		c-0.2-1-0.3-2.5-0.3-4.5V100.5z"/>
	<path class="st0" d="M302,118.1h-3.4v-6.5c0-1.4-0.1-2.3-0.2-2.7c-0.1-0.4-0.4-0.7-0.7-0.9s-0.7-0.3-1.2-0.3
		c-0.6,0-1.1,0.2-1.6,0.5c-0.5,0.3-0.8,0.7-1,1.3c-0.2,0.5-0.3,1.5-0.3,2.9v5.8h-3.4v-12.7h3.1v1.9c1.1-1.4,2.5-2.2,4.2-2.2
		c0.7,0,1.4,0.1,2,0.4c0.6,0.3,1.1,0.6,1.4,1c0.3,0.4,0.5,0.9,0.7,1.4c0.1,0.5,0.2,1.3,0.2,2.3V118.1z"/>
	<path class="st0" d="M305,100.5h3.4v3.1H305V100.5z M305,105.3h3.4v12.7H305V105.3z"/>
	<path class="st0" d="M315,118.1l-5.1-12.7h3.5l2.4,6.5l0.7,2.2c0.2-0.6,0.3-0.9,0.3-1.1c0.1-0.4,0.2-0.7,0.4-1.1l2.4-6.5h3.5
		l-5.1,12.7H315z"/>
	<path class="st0" d="M332.1,114l3.4,0.6c-0.4,1.2-1.1,2.2-2,2.8c-0.9,0.6-2.1,1-3.5,1c-2.2,0-3.9-0.7-4.9-2.2
		c-0.8-1.2-1.3-2.6-1.3-4.4c0-2.1,0.6-3.8,1.7-5c1.1-1.2,2.5-1.8,4.2-1.8c1.9,0,3.4,0.6,4.5,1.9c1.1,1.3,1.6,3.2,1.6,5.8h-8.4
		c0,1,0.3,1.8,0.8,2.3c0.5,0.6,1.2,0.8,1.9,0.8c0.5,0,1-0.1,1.3-0.4C331.6,115.1,331.9,114.6,332.1,114 M332.3,110.6
		c0-1-0.3-1.7-0.8-2.2c-0.5-0.5-1.1-0.8-1.8-0.8c-0.7,0-1.3,0.3-1.8,0.8c-0.5,0.5-0.7,1.3-0.7,2.2H332.3z"/>
	<path class="st0" d="M341.2,118.1h-3.4v-12.7h3.1v1.8c0.5-0.9,1-1.4,1.4-1.7c0.4-0.3,0.9-0.4,1.5-0.4c0.8,0,1.5,0.2,2.2,0.6l-1,2.9
		c-0.6-0.4-1.1-0.6-1.6-0.6c-0.5,0-0.9,0.1-1.2,0.4c-0.3,0.3-0.6,0.7-0.8,1.4c-0.2,0.7-0.3,2.1-0.3,4.3V118.1z"/>
	<path class="st0" d="M345.9,114.4l3.4-0.5c0.1,0.7,0.4,1.2,0.9,1.5c0.4,0.3,1.1,0.5,1.8,0.5c0.9,0,1.5-0.2,2-0.5
		c0.3-0.2,0.4-0.5,0.4-0.9c0-0.3-0.1-0.5-0.2-0.6c-0.2-0.2-0.5-0.3-1.1-0.4c-2.7-0.6-4.4-1.1-5.2-1.6c-1-0.7-1.5-1.6-1.5-2.9
		c0-1.1,0.4-2,1.3-2.8c0.9-0.8,2.2-1.1,4.1-1.1c1.7,0,3,0.3,3.9,0.9c0.8,0.6,1.4,1.4,1.8,2.5l-3.2,0.6c-0.1-0.5-0.4-0.9-0.8-1.1
		c-0.4-0.3-0.9-0.4-1.6-0.4c-0.9,0-1.5,0.1-1.9,0.4c-0.3,0.2-0.4,0.4-0.4,0.7c0,0.2,0.1,0.4,0.3,0.6c0.3,0.2,1.4,0.5,3.1,0.9
		c1.8,0.4,3.1,0.9,3.8,1.5c0.7,0.6,1.1,1.4,1.1,2.5c0,1.2-0.5,2.2-1.5,3c-1,0.8-2.4,1.3-4.3,1.3c-1.7,0-3.1-0.4-4.1-1.1
		C346.9,116.6,346.2,115.6,345.9,114.4"/>
	<path class="st0" d="M360.3,100.5h3.4v3.1h-3.4V100.5z M360.3,105.3h3.4v12.7h-3.4V105.3z"/>
	<path class="st0" d="M372.6,105.3v2.7h-2.3v5.1c0,1,0,1.6,0.1,1.8c0,0.2,0.1,0.3,0.3,0.4c0.2,0.1,0.3,0.2,0.6,0.2
		c0.3,0,0.8-0.1,1.4-0.3l0.3,2.6c-0.8,0.3-1.7,0.5-2.7,0.5c-0.6,0-1.2-0.1-1.6-0.3c-0.5-0.2-0.8-0.5-1.1-0.8
		c-0.2-0.3-0.4-0.8-0.5-1.3c-0.1-0.4-0.1-1.2-0.1-2.4V108h-1.5v-2.7h1.5v-2.5l3.4-2v4.5H372.6z"/>
	<path class="st0" d="M372.9,105.3h3.6l3,9l3-9h3.5l-4.5,12.3l-0.8,2.2c-0.3,0.7-0.6,1.3-0.8,1.7c-0.3,0.4-0.6,0.7-0.9,1
		c-0.3,0.2-0.8,0.4-1.3,0.6c-0.5,0.1-1.1,0.2-1.7,0.2c-0.6,0-1.3-0.1-1.9-0.2l-0.3-2.6c0.5,0.1,1,0.2,1.4,0.2c0.8,0,1.4-0.2,1.7-0.7
		c0.4-0.5,0.7-1,0.9-1.8L372.9,105.3z"/>
	<path class="st1" d="M3.2,61.6c-0.6,2.5-2.8,5.1-3.2,7.8c29.7-14.5,77-0.2,77-0.2C40.8,57.1,10.4,60.6,3.2,61.6"/>
	<path class="st0" d="M73.6,67.3C43.4,53.9,12.7,52.4,5.9,52.2C5,54.6,2.6,55.4,2,58C39.7,52.3,73.6,67.3,73.6,67.3"/>
	<path class="st0" d="M70,65C47.1,50,17.7,43.6,10.2,42.1c-1.1,2.3-3.8,3-4.8,5.5C35.6,47.4,70,65,70,65"/>
	<path class="st0" d="M66.5,61.8C45.7,45.5,21.6,35.7,15.2,33.4c-1.3,1.9-4.1,2.3-5.3,4.4C37.9,40.5,66.5,61.8,66.5,61.8"/>
	<path class="st0" d="M64.9,59.3C46.4,37.5,24,26.6,21.3,25.4c-1.5,1.7-4.5,1.9-5.9,3.8C38.9,34.5,64.9,59.3,64.9,59.3"/>
	<path class="st0" d="M22.2,20.9c17.7,5.2,40,34,40,34c-12.8-20-29.5-33.5-34.1-36.6C26.7,19.6,23.6,19.4,22.2,20.9"/>
	<path class="st0" d="M60.9,50.6c-9.8-21.3-21.8-35.7-24.9-38.8c-1.3,0.9-4.2,0.3-5.5,1.4C46.3,23,60.9,50.6,60.9,50.6"/>
	<path class="st0" d="M60.8,47.1c-7.1-22.1-15-37.6-17-40.6c-1.4,0.8-4.5,0.1-6.1,1.1C52.3,20.7,60.8,47.1,60.8,47.1"/>
	<path class="st0" d="M61,42.9c-3.5-24.2-8.1-38-9.3-40.4C50.5,3,47.3,2.1,45.6,3C56.4,20.2,61,42.9,61,42.9"/>
	<path class="st0" d="M58.3,1l-4.7,0c6.2,5.5,8.2,35.4,8.2,35.4C62.5,11.4,58.3,1,58.3,1"/>
	<path class="st0" d="M390.7,113.8c0.6,0,1.1,0.1,1.6,0.4c0.5,0.3,0.9,0.7,1.2,1.2c0.3,0.5,0.5,1.1,0.5,1.7c0,0.6-0.2,1.1-0.5,1.7
		c-0.3,0.5-0.7,0.9-1.2,1.2c-0.5,0.3-1.1,0.4-1.7,0.4c-0.6,0-1.1-0.1-1.7-0.4c-0.5-0.3-0.9-0.7-1.2-1.2c-0.3-0.5-0.4-1.1-0.4-1.7
		c0-0.6,0.1-1.1,0.4-1.7c0.3-0.5,0.7-0.9,1.2-1.2C389.6,113.9,390.1,113.8,390.7,113.8 M390.7,114.4c-0.5,0-0.9,0.1-1.3,0.3
		c-0.4,0.2-0.7,0.6-1,1c-0.2,0.4-0.4,0.9-0.4,1.4c0,0.5,0.1,0.9,0.4,1.3c0.2,0.4,0.6,0.8,1,1c0.4,0.2,0.9,0.4,1.3,0.4
		c0.5,0,0.9-0.1,1.3-0.4c0.4-0.2,0.8-0.6,1-1c0.2-0.4,0.4-0.9,0.4-1.3c0-0.5-0.1-0.9-0.4-1.4c-0.2-0.4-0.6-0.8-1-1
		C391.6,114.5,391.2,114.4,390.7,114.4 M389.2,118.9v-3.6h0.7c0.7,0,1.1,0,1.1,0c0.2,0,0.4,0.1,0.6,0.1c0.1,0.1,0.2,0.2,0.3,0.3
		c0.1,0.2,0.1,0.3,0.1,0.5c0,0.3-0.1,0.5-0.3,0.7c-0.2,0.2-0.4,0.3-0.7,0.3c0.1,0,0.2,0.1,0.2,0.1c0.1,0.1,0.1,0.1,0.2,0.3
		c0,0,0.1,0.2,0.3,0.4l0.4,0.7h-0.9l-0.3-0.6c-0.2-0.4-0.4-0.6-0.5-0.7c-0.1-0.1-0.3-0.2-0.5-0.2h-0.2v1.5H389.2z M389.9,116.9h0.3
		c0.4,0,0.7,0,0.8,0c0.1,0,0.2-0.1,0.2-0.2c0.1-0.1,0.1-0.2,0.1-0.3c0-0.1,0-0.2-0.1-0.3c-0.1-0.1-0.1-0.1-0.2-0.2
		c-0.1,0-0.4,0-0.8,0h-0.3V116.9z"/>
</g>
</svg>
